<?xml version="1.0" encoding="UTF-8" standalone="no"?>
<svg
     xmlns:dc="http://purl.org/dc/elements/1.1/"
     xmlns:cc="http://creativecommons.org/ns#"
     xmlns:rdf="http://www.w3.org/1999/02/22-rdf-syntax-ns#"
     xmlns:svg="http://www.w3.org/2000/svg"
     xmlns="http://www.w3.org/2000/svg"
     version="1.1"
     id="svg5256"
     viewBox="0 0 500 84.479693"
     height="84.479691"
     width="500">
    <defs
         id="defs5258" />
    <metadata
         id="metadata5261">
        <rdf:RDF>
            <cc:Work
                 rdf:about="">
                <dc:format>image/svg+xml</dc:format>
                <dc:type
                     rdf:resource="http://purl.org/dc/dcmitype/StillImage" />
                <dc:title></dc:title>
            </cc:Work>
        </rdf:RDF>
    </metadata>
    <g
         transform="translate(-32.836585,-366.83355)"
         id="layer1">
        <g
             transform="matrix(31.621359,0,0,-31.621359,523.49106,374.90182)"
             id="g3978">
            <path
                 id="path3980"
                 style="fill:#231f20;fill-opacity:1;fill-rule:nonzero;stroke:none"
                 d="m 0,0 0,0.132 -0.049,0 0,0.018 0.119,0 0,-0.018 -0.05,0 L 0.02,0 0,0 Z" />
        </g>
        <g
             transform="matrix(31.621359,0,0,-31.621359,526.31473,374.90182)"
             id="g3982">
            <path
                 id="path3984"
                 style="fill:#231f20;fill-opacity:1;fill-rule:nonzero;stroke:none"
                 d="m 0,0 0,0.15 0.03,0 0.035,-0.106 C 0.069,0.034 0.071,0.026 0.073,0.022 0.074,0.027 0.077,0.035 0.081,0.046 l 0.035,0.104 0.027,0 0,-0.15 -0.019,0 0,0.125 L 0.08,0 0.062,0 0.019,0.128 0.019,0 0,0 Z" />
        </g>
        <g
             transform="matrix(31.621359,0,0,-31.621359,304.0325,368.83355)"
             id="g3986">
            <path
                 id="path3988"
                 style="fill:#231f20;fill-opacity:1;fill-rule:nonzero;stroke:none"
                 d="m 0,0 -0.461,-0.351 -0.222,-0.794 0.258,-0.365 0.746,0 -0.152,-0.548 -0.616,0 0.072,0.261 -0.49,0 -0.104,-0.383 0.265,-0.362 0.867,0 0.462,0.357 0.22,0.801 -0.26,0.362 -0.745,0 0.15,0.541 0.614,0 -0.074,-0.263 0.492,0 0.111,0.393 L 0.877,0 0,0 Z" />
        </g>
        <g
             transform="matrix(31.621359,0,0,-31.621359,363.20871,368.83355)"
             id="g3990">
            <path
                 id="path3992"
                 style="fill:#231f20;fill-opacity:1;fill-rule:nonzero;stroke:none"
                 d="m 0,0 -0.463,-0.351 -0.508,-1.831 0.267,-0.36 0.867,0 0.463,0.36 0.143,0.517 -0.49,0 -0.109,-0.393 -0.615,0 0.439,1.58 0.614,0 -0.111,-0.398 0.489,0 0.148,0.525 L 0.881,0 0,0 Z" />
        </g>
        <g
             transform="matrix(31.621359,0,0,-31.621359,470.26271,368.83355)"
             id="g3994">
            <path
                 id="path3996"
                 style="fill:#231f20;fill-opacity:1;fill-rule:nonzero;stroke:none"
                 d="m 0,0 -0.706,-2.542 0.489,0 0.211,0.762 0.399,0 0.091,-0.762 0.478,0 -0.105,0.867 0.345,0.279 0.29,1.045 L 1.235,0 0,0 Z m 0.355,-0.478 0.613,0 -0.228,-0.821 -0.613,0 0.228,0.821 z" />
        </g>
        <g
             transform="matrix(31.621359,0,0,-31.621359,209.01665,368.83355)"
             id="g3998">
            <path
                 id="path4000"
                 style="fill:#231f20;fill-opacity:1;fill-rule:nonzero;stroke:none"
                 d="M 0,0 -0.397,-1.435 -0.633,0 l -0.485,0 -0.706,-2.542 0.49,0 0.404,1.441 0.239,-1.441 0.478,0 L 0.491,0 0,0 Z" />
        </g>
        <g
             transform="matrix(31.621359,0,0,-31.621359,244.7551,368.83355)"
             id="g4002">
            <path
                 id="path4004"
                 style="fill:#231f20;fill-opacity:1;fill-rule:nonzero;stroke:none"
                 d="m 0,0 -0.457,-0.349 -0.609,-2.193 0.489,0 0.211,0.761 0.617,0 -0.211,-0.761 0.488,0 0.609,2.191 L 0.88,0 0,0 Z m -0.006,-0.478 0.617,0 -0.227,-0.821 -0.617,0 0.227,0.821 z" />
        </g>
        <g
             transform="matrix(31.621359,0,0,-31.621359,422.29638,368.83355)"
             id="g4006">
            <path
                 id="path4008"
                 style="fill:#231f20;fill-opacity:1;fill-rule:nonzero;stroke:none"
                 d="m 0,0 -0.459,-0.351 -0.607,-2.191 0.489,0 0.211,0.761 0.616,0 -0.21,-0.761 0.49,0 0.607,2.193 L 0.88,0 0,0 Z m -0.006,-0.478 0.617,0 -0.227,-0.821 -0.617,0 0.227,0.821 z" />
        </g>
        <g
             transform="matrix(31.621359,0,0,-31.621359,134.34926,368.8462)"
             id="g4010">
            <path
                 id="path4012"
                 style="fill:#0d7bc0;fill-opacity:1;fill-rule:nonzero;stroke:none"
                 d="m 0,0 -0.706,-2.542 0.977,0 L 0.975,0 0,0 Z" />
        </g>
        <g
             transform="matrix(31.621359,0,0,-31.621359,90.047738,368.8685)"
             id="g4014">
            <path
                 id="path4016"
                 style="fill:#e51d2e;fill-opacity:1;fill-rule:nonzero;stroke:none"
                 d="m 0,0 -0.707,-2.544 0.472,0 L 0.469,0 0,0 Z" />
        </g>
        <g
             transform="matrix(31.621359,0,0,-31.621359,110.96818,368.8685)"
             id="g4018">
            <path
                 id="path4020"
                 style="fill:#e51d2e;fill-opacity:1;fill-rule:nonzero;stroke:none"
                 d="m 0,0 -0.707,-2.544 0.472,0 L 0.469,0 0,0 Z" />
        </g>
        <g
             style="fill:#fed75a;fill-opacity:1"
             transform="matrix(31.621359,0,0,-31.621359,57.192886,368.8685)"
             id="g4022">
            <path
                 id="path4024"
                 style="fill:#fed75a;fill-opacity:1;fill-rule:nonzero;stroke:none"
                 d="m 0,0 -0.707,-2.544 0.293,0 L 0.29,0 0,0 Z" />
        </g>
        <g
             style="fill:#fed75a;fill-opacity:1"
             transform="matrix(31.621359,0,0,-31.621359,72.406046,368.8685)"
             id="g4026">
            <path
                 id="path4028"
                 style="fill:#fed75a;fill-opacity:1;fill-rule:nonzero;stroke:none"
                 d="m 0,0 -0.707,-2.544 0.293,0 L 0.29,0 0,0 Z" />
        </g>
    </g>
</svg>
